<svg width="32" height="32" viewBox="0 0 32 32" fill="none" xmlns="http://www.w3.org/2000/svg">
<path d="M21.2248 11.9989C21.1768 12.0937 21.0596 12.1318 20.9649 12.0837L14.9136 9.01441C14.8188 8.96628 14.7807 8.84941 14.8288 8.75472L19.0613 0.428094C19.1094 0.333344 19.2264 0.295219 19.3212 0.343344L25.3724 3.41259C25.4673 3.46072 25.5054 3.57759 25.4573 3.67228L21.2248 11.9989Z" fill="#60A041"/>
<path d="M17.2098 8.26561C17.1148 8.21748 17.0767 8.10067 17.1249 8.00592L19.8108 2.72179C19.859 2.62704 19.976 2.58892 20.0708 2.63704L23.0763 4.16148C23.1712 4.20954 23.2094 4.32642 23.1611 4.42117L20.4752 9.7053C20.427 9.80005 20.31 9.83817 20.2153 9.79005L17.2098 8.26561Z" fill="#4B7D32"/>
<path d="M20.6345 9.53162C20.6345 9.63787 20.5474 9.72481 20.4411 9.72481H13.6546C13.5482 9.72481 13.4612 9.63787 13.4612 9.53162V0.193188C13.4612 0.0869375 13.5482 0 13.6546 0H20.4412C20.5475 0 20.6346 0.0869375 20.6346 0.193188V9.53162H20.6345Z" fill="#89C947"/>
<path d="M15.3624 8.01874C15.2561 8.01874 15.1691 7.9318 15.1691 7.82555V1.8993C15.1691 1.79305 15.2561 1.70618 15.3624 1.70618H18.7332C18.8396 1.70618 18.9266 1.79311 18.9266 1.8993V7.82555C18.9266 7.9318 18.8396 8.01874 18.7332 8.01874H15.3624Z" fill="#4B7D32"/>
<path d="M17.0482 8.7866C17.9679 8.7866 18.7134 8.04182 18.7134 7.1231C18.7134 6.20437 17.9679 5.45959 17.0482 5.45959C16.1285 5.45959 15.3829 6.20437 15.3829 7.1231C15.3829 8.04182 16.1285 8.7866 17.0482 8.7866Z" fill="#89C947"/>
<path d="M21.6355 11.5162C21.99 11.5162 22.4251 11.2653 22.6023 10.9586L24.507 7.66328C24.6842 7.35659 24.5392 7.10571 24.1847 7.10571H12.4868C12.1323 7.10571 11.9873 7.35659 12.1645 7.66328L14.0691 10.9586C14.2464 11.2653 14.6815 11.5162 15.036 11.5162H21.6355Z" fill="#A67C52"/>
<path opacity="0.1" d="M15.9928 10.9586L14.0883 7.66328C13.911 7.35659 14.056 7.10571 14.4105 7.10571H12.4868C12.1323 7.10571 11.9873 7.35659 12.1645 7.66328L14.0691 10.9586C14.2464 11.2653 14.6815 11.5162 15.036 11.5162H16.9597C16.6052 11.5162 16.1701 11.2653 15.9928 10.9586Z" fill="white"/>
<path d="M11.4725 30.9658C11.2803 30.9658 11.0954 30.893 10.955 30.762C8.77154 28.7249 7.51917 25.8464 7.51917 22.8644C7.51917 16.9066 12.3715 12.0596 18.3356 12.0596C24.2999 12.0596 29.1521 16.9066 29.1521 22.8644C29.1521 25.8464 27.8999 28.725 25.7164 30.762C25.5759 30.893 25.391 30.9658 25.1989 30.9658H11.4725Z" fill="#A67C52"/>
<path opacity="0.1" d="M8.93748 22.8644C8.93748 17.1447 13.4099 12.4496 19.0445 12.0834C18.8102 12.0679 18.5739 12.0596 18.3356 12.0596C12.3714 12.0596 7.51917 16.9066 7.51917 22.8644C7.51917 25.8464 8.77154 28.725 10.955 30.762C11.0954 30.893 11.2803 30.9658 11.4725 30.9658H12.8908C12.6986 30.9658 12.5137 30.893 12.3733 30.762C10.1899 28.725 8.93748 25.8464 8.93748 22.8644Z" fill="white"/>
<path d="M18.3357 26.8456C21.1513 26.8456 23.4338 24.5657 23.4338 21.7531C23.4338 18.9406 21.1513 16.6606 18.3357 16.6606C15.5201 16.6606 13.2375 18.9406 13.2375 21.7531C13.2375 24.5657 15.5201 26.8456 18.3357 26.8456Z" fill="#4B7D32"/>
<path opacity="0.1" d="M14.5175 21.7528C14.5175 19.157 16.4623 17.0163 18.9755 16.7017C18.7659 16.6753 18.5525 16.6603 18.3357 16.6603C15.5202 16.6603 13.2378 18.9403 13.2378 21.7528C13.2378 24.5653 15.5202 26.8453 18.3357 26.8453C18.5526 26.8453 18.7659 26.8302 18.9755 26.804C16.4624 26.4893 14.5175 24.3487 14.5175 21.7528Z" fill="white"/>
<path d="M18.3357 27.3141C15.2662 27.3141 12.769 24.8193 12.769 21.7528C12.769 18.6863 15.2662 16.1915 18.3357 16.1915C21.4052 16.1915 23.9024 18.6863 23.9024 21.7528C23.9025 24.8193 21.4052 27.3141 18.3357 27.3141ZM18.3357 17.129C15.7832 17.129 13.7065 19.2033 13.7065 21.7528C13.7065 24.3024 15.7832 26.3766 18.3357 26.3766C20.8883 26.3766 22.9649 24.3023 22.9649 21.7528C22.965 19.2033 20.8883 17.129 18.3357 17.129Z" fill="#60A041"/>
<path d="M17.14 12.3751C16.8811 12.3751 16.6713 12.1652 16.6713 11.9064V9.72485C16.6713 9.46598 16.8811 9.2561 17.14 9.2561C17.399 9.2561 17.6088 9.46598 17.6088 9.72485V11.9064C17.6088 12.1652 17.399 12.3751 17.14 12.3751Z" fill="#8C6239"/>
<path d="M19.5312 12.3751C19.2723 12.3751 19.0625 12.1652 19.0625 11.9064V10.066C19.0625 9.80717 19.2723 9.59729 19.5312 9.59729C19.7902 9.59729 20 9.80717 20 10.066V11.9064C20 12.1652 19.7902 12.3751 19.5312 12.3751Z" fill="#8C6239"/>
<path d="M19.1803 21.1314H18.435H18.0377H17.4912C17.2292 21.1314 17.016 20.9187 17.016 20.6573V20.4587C17.016 20.1973 17.2291 19.9846 17.4912 19.9846H19.4286C19.6876 19.9846 19.8974 19.7748 19.8974 19.5159C19.8974 19.257 19.6876 19.0471 19.4286 19.0471H18.8044V18.4241C18.8044 18.1652 18.5946 17.9553 18.3357 17.9553C18.0767 17.9553 17.8669 18.1652 17.8669 18.4241V19.0471H17.4912C16.7122 19.0471 16.0785 19.6803 16.0785 20.4587V20.6573C16.0785 21.4356 16.7122 22.0689 17.4912 22.0689H18.0377H18.435H19.1803C19.4423 22.0689 19.6555 22.2816 19.6555 22.543V22.7415C19.6555 23.0029 19.4424 23.2156 19.1803 23.2156H16.8453C16.5864 23.2156 16.3766 23.4255 16.3766 23.6844C16.3766 23.9433 16.5864 24.1531 16.8453 24.1531H17.867V24.8258C17.867 25.0846 18.0768 25.2945 18.3357 25.2945C18.5947 25.2945 18.8045 25.0846 18.8045 24.8258V24.1531H19.1804C19.9593 24.1531 20.5931 23.5199 20.5931 22.7415V22.543C20.5929 21.7646 19.9592 21.1314 19.1803 21.1314Z" fill="#89C947"/>
<path d="M15.7743 29.441V27.8477C15.7743 27.6706 15.6293 27.5258 15.4521 27.5258H10.072C10.2492 27.5258 10.3942 27.3809 10.3942 27.2038V25.6106C10.3942 25.4336 10.2492 25.2887 10.072 25.2887C10.2492 25.2887 10.3942 25.1438 10.3942 24.9668V23.3735C10.3942 23.1964 10.2492 23.0515 10.072 23.0515C10.2492 23.0515 10.3942 22.9066 10.3942 22.7296V21.1364C10.3942 20.9593 10.2492 20.8145 10.072 20.8145H3.8773C3.70005 20.8145 3.55505 20.9593 3.55505 21.1364V22.7296C3.55505 22.9066 3.70005 23.0515 3.8773 23.0515C3.70005 23.0515 3.55505 23.1964 3.55505 23.3735V24.9668C3.55505 25.1438 3.70005 25.2887 3.8773 25.2887C3.70005 25.2887 3.55505 25.4336 3.55505 25.6106V27.2038C3.55505 27.3809 3.70005 27.5258 3.8773 27.5258C3.70005 27.5258 3.55505 27.6706 3.55505 27.8477V29.441C3.55505 29.618 3.70005 29.7629 3.8773 29.7629C3.70005 29.7629 3.55505 29.9078 3.55505 30.0848V31.678C3.55505 31.8551 3.70005 32 3.8773 32H9.2573H10.0719H15.452C15.6292 32 15.7742 31.8551 15.7742 31.678V30.0848C15.7742 29.9078 15.6292 29.7629 15.452 29.7629C15.6292 29.7629 15.7743 29.618 15.7743 29.441Z" fill="#FECF05"/>
<path d="M10.3942 31.6781C10.3942 31.8551 10.2492 32 10.072 32H3.8773C3.70005 32 3.55505 31.8551 3.55505 31.6781V30.0849C3.55505 29.9078 3.70005 29.7629 3.8773 29.7629H10.0719C10.2492 29.7629 10.3942 29.9078 10.3942 30.0849L10.3942 31.6781Z" fill="#FECF05"/>
<path d="M10.3942 29.4409C10.3942 29.618 10.2492 29.7629 10.072 29.7629H3.8773C3.70005 29.7629 3.55505 29.618 3.55505 29.4409V27.8477C3.55505 27.6706 3.70005 27.5258 3.8773 27.5258H10.0719C10.2492 27.5258 10.3942 27.6706 10.3942 27.8477L10.3942 29.4409Z" fill="#F8B816"/>
<path d="M10.3942 27.2039C10.3942 27.381 10.2492 27.5259 10.072 27.5259H3.8773C3.70005 27.5259 3.55505 27.381 3.55505 27.2039V25.6108C3.55505 25.4337 3.70005 25.2888 3.8773 25.2888H10.0719C10.2492 25.2888 10.3942 25.4337 10.3942 25.6108L10.3942 27.2039Z" fill="#FECF05"/>
<path d="M10.3942 24.9669C10.3942 25.1439 10.2492 25.2888 10.072 25.2888H3.8773C3.70005 25.2888 3.55505 25.1439 3.55505 24.9669V23.3736C3.55505 23.1965 3.70005 23.0516 3.8773 23.0516H10.0719C10.2492 23.0516 10.3942 23.1965 10.3942 23.3736L10.3942 24.9669Z" fill="#F8B816"/>
<path d="M10.3942 22.7297C10.3942 22.9068 10.2492 23.0516 10.072 23.0516H3.8773C3.70005 23.0516 3.55505 22.9068 3.55505 22.7297V21.1365C3.55505 20.9595 3.70005 20.8146 3.8773 20.8146H10.0719C10.2492 20.8146 10.3942 20.9595 10.3942 21.1365L10.3942 22.7297Z" fill="#FECF05"/>
<path d="M15.7744 31.6781C15.7744 31.8551 15.6294 32 15.4521 32H9.25743C9.08018 32 8.93518 31.8551 8.93518 31.6781V30.0849C8.93518 29.9078 9.08018 29.7629 9.25743 29.7629H15.4521C15.6294 29.7629 15.7744 29.9078 15.7744 30.0849V31.6781Z" fill="#F8B816"/>
<path d="M15.7744 29.4409C15.7744 29.618 15.6294 29.7629 15.4521 29.7629H9.25743C9.08018 29.7629 8.93518 29.618 8.93518 29.4409V27.8477C8.93518 27.6706 9.08018 27.5258 9.25743 27.5258H15.4521C15.6294 27.5258 15.7744 27.6706 15.7744 27.8477V29.4409Z" fill="#FECF05"/>
<path d="M23.6233 13.0161C23.6233 13.1932 23.4783 13.338 23.3011 13.338H13.3705C13.1932 13.338 13.0482 13.1932 13.0482 13.0161V11.4117C13.0482 11.2346 13.1932 11.0897 13.3705 11.0897H23.3011C23.4783 11.0897 23.6233 11.2346 23.6233 11.4117V13.0161Z" fill="#EBB272"/>
<path d="M4.86671 18.3669C4.78678 18.3669 4.71471 18.3187 4.68415 18.2449C4.27115 17.2486 3.96684 16.9444 2.97003 16.5315C2.89609 16.501 2.8479 16.4289 2.8479 16.3491C2.8479 16.2692 2.89609 16.1971 2.97003 16.1666C3.96678 15.7539 4.27109 15.4497 4.68415 14.4533C4.71471 14.3794 4.78678 14.3313 4.86671 14.3313C4.94659 14.3313 5.01878 14.3794 5.04934 14.4533C5.46228 15.4497 5.76671 15.7538 6.76346 16.1666C6.8374 16.1972 6.88559 16.2692 6.88559 16.3491C6.88559 16.429 6.8374 16.5011 6.76346 16.5315C5.76671 16.9444 5.46234 17.2486 5.04934 18.2449C5.01878 18.3188 4.94665 18.3669 4.86671 18.3669Z" fill="#F8B816"/>
<path d="M8.11179 12.5658C8.0521 12.5658 7.99835 12.5299 7.97542 12.4747C7.66723 11.7313 7.44017 11.5042 6.69623 11.1961C6.6411 11.1733 6.6051 11.1196 6.6051 11.0599C6.6051 11.0003 6.6411 10.9465 6.69623 10.9237C7.4401 10.6157 7.66723 10.3886 7.97542 9.6452C7.99829 9.59007 8.0521 9.5542 8.11179 9.5542C8.17129 9.5542 8.22516 9.59007 8.24798 9.6452C8.55623 10.3887 8.78323 10.6157 9.52717 10.9237C9.58235 10.9465 9.61835 11.0003 9.61835 11.0599C9.61835 11.1196 9.58235 11.1733 9.52717 11.1961C8.78329 11.5042 8.55623 11.7313 8.24798 12.4747C8.22516 12.5299 8.17129 12.5658 8.11179 12.5658Z" fill="#FECF05"/>
<path opacity="0.1" d="M4.46824 31.678V30.0848C4.46824 29.9078 4.61324 29.7629 4.79049 29.7629C4.61324 29.7629 4.46824 29.618 4.46824 29.441V27.8477C4.46824 27.6706 4.61324 27.5258 4.79049 27.5258C4.61324 27.5258 4.46824 27.3809 4.46824 27.2038V25.6106C4.46824 25.4336 4.61324 25.2887 4.79049 25.2887C4.61324 25.2887 4.46824 25.1438 4.46824 24.9668V23.3735C4.46824 23.1964 4.61324 23.0515 4.79049 23.0515C4.61324 23.0515 4.46824 22.9066 4.46824 22.7296V21.1364C4.46824 20.9593 4.61324 20.8145 4.79049 20.8145H3.8773C3.70005 20.8145 3.55505 20.9593 3.55505 21.1364V22.7296C3.55505 22.9066 3.70005 23.0515 3.8773 23.0515C3.70005 23.0515 3.55505 23.1964 3.55505 23.3735V24.9668C3.55505 25.1438 3.70005 25.2887 3.8773 25.2887C3.70005 25.2887 3.55505 25.4336 3.55505 25.6106V27.2038C3.55505 27.3809 3.70005 27.5258 3.8773 27.5258C3.70005 27.5258 3.55505 27.6706 3.55505 27.8477V29.441C3.55505 29.618 3.70005 29.7629 3.8773 29.7629C3.70005 29.7629 3.55505 29.9078 3.55505 30.0848V31.678C3.55505 31.8551 3.70005 32 3.8773 32H4.79049C4.6133 32 4.46824 31.8551 4.46824 31.678Z" fill="white"/>
<path opacity="0.1" d="M9.68512 31.678V30.0848C9.68512 29.9078 9.83012 29.7629 10.0074 29.7629C9.83012 29.7629 9.68512 29.618 9.68512 29.4409V27.8477C9.68512 27.6706 9.83012 27.5258 10.0074 27.5258H9.25731C9.08006 27.5258 8.93506 27.6706 8.93506 27.8477V29.4409C8.93506 29.618 9.08006 29.7629 9.25731 29.7629C9.08006 29.7629 8.93506 29.9078 8.93506 30.0848V31.678C8.93506 31.8551 9.08006 31.9999 9.25731 31.9999H10.0074C9.83012 31.9999 9.68512 31.8551 9.68512 31.678Z" fill="white"/>
</svg>
