<svg width="55" height="49" viewBox="0 0 55 49" fill="none" xmlns="http://www.w3.org/2000/svg">
<path d="M1.36572 8.49664C-0.306961 5.80167 2.80173 2.69297 5.49671 4.36565L39.8222 25.6703C41.4646 26.6897 41.7284 28.9736 40.3614 30.3405L27.3406 43.3614C25.9737 44.7283 23.6898 44.4646 22.6703 42.8221L1.36572 8.49664Z" fill="#D9D9D9"/>
<path fill-rule="evenodd" clip-rule="evenodd" d="M37.3168 23.4246L32.5002 12L27.7736 23.209C27.606 23.7271 27.288 24.1839 26.8597 24.5217C26.4315 24.8594 25.9123 25.0628 25.368 25.1061L13 26.1436L22.2663 34.118C22.6914 34.44 23.0139 34.8778 23.1948 35.3786C23.3756 35.8794 23.407 36.4217 23.2852 36.9399L20.4482 49L31.032 42.6104C31.4647 42.3394 31.9645 42.1937 32.4755 42.1896C32.9865 42.1855 33.4886 42.3231 33.9256 42.5872L44.5511 49L41.7125 36.9394L41.7176 36.936C41.6036 36.4479 41.6256 35.9381 41.7811 35.4615C41.9366 34.985 42.2197 34.5599 42.5999 34.2321L52 26.1436L39.6315 25.1061V25.098C39.1291 25.0569 38.6476 24.8791 38.2395 24.584C37.8314 24.289 37.5121 23.8879 37.3168 23.4246Z" fill="#E2FF30"/>
</svg>
