<svg width="60" height="59" viewBox="0 0 60 59" fill="none" xmlns="http://www.w3.org/2000/svg">
<g clip-path="url(#clip0_1642_325)">
<path d="M27 35C30.866 35 34 31.866 34 28C34 24.134 30.866 21 27 21C23.134 21 20 24.134 20 28C20 31.866 23.134 35 27 35Z" fill="#FDCD56"/>
<path d="M32 47H20C18.8954 47 18 47.8954 18 49C18 50.1046 18.8954 51 20 51H32C33.1046 51 34 50.1046 34 49C34 47.8954 33.1046 47 32 47Z" fill="#F5B945"/>
<path d="M35 43H23C21.8954 43 21 43.8954 21 45C21 46.1046 21.8954 47 23 47H35C36.1046 47 37 46.1046 37 45C37 43.8954 36.1046 43 35 43Z" fill="#FDCD56"/>
<path d="M30 39H18C16.8954 39 16 39.8954 16 41C16 42.1046 16.8954 43 18 43H30C31.1046 43 32 42.1046 32 41C32 39.8954 31.1046 39 30 39Z" fill="#F5B945"/>
<path d="M34 35H22C20.8954 35 20 35.8954 20 37C20 38.1046 20.8954 39 22 39H34C35.1046 39 36 38.1046 36 37C36 35.8954 35.1046 35 34 35Z" fill="#FDCD56"/>
<path d="M45 51H57C58.1046 51 59 50.1046 59 49C59 47.8954 58.1046 47 57 47H45C43.8954 47 43 47.8954 43 49C43 50.1046 43.8954 51 45 51Z" fill="#FDCD56"/>
<path d="M39 47H51C52.1046 47 53 46.1046 53 45C53 43.8954 52.1046 43 51 43H39C37.8954 43 37 43.8954 37 45C37 46.1046 37.8954 47 39 47Z" fill="#F5B945"/>
<path d="M44 43H56C57.1046 43 58 42.1046 58 41C58 39.8954 57.1046 39 56 39H44C42.8954 39 42 39.8954 42 41C42 42.1046 42.8954 43 44 43Z" fill="#FDCD56"/>
<path d="M42 39H54C55.1046 39 56 38.1046 56 37C56 35.8954 55.1046 35 54 35H42C40.8954 35 40 35.8954 40 37C40 38.1046 40.8954 39 42 39Z" fill="#F5B945"/>
<path d="M41 35H53C54.1046 35 55 34.1046 55 33C55 31.8954 54.1046 31 53 31H41C39.8954 31 39 31.8954 39 33C39 34.1046 39.8954 35 41 35Z" fill="#FDCD56"/>
<path d="M40 31H52C53.1046 31 54 30.1046 54 29C54 27.8954 53.1046 27 52 27H40C38.8954 27 38 27.8954 38 29C38 30.1046 38.8954 31 40 31Z" fill="#F5B945"/>
<path d="M42 27H54C55.1046 27 56 26.1046 56 25C56 23.8954 55.1046 23 54 23H42C40.8954 23 40 23.8954 40 25C40 26.1046 40.8954 27 42 27Z" fill="#FDCD56"/>
<path d="M16 47H4C2.89543 47 2 47.8954 2 49C2 50.1046 2.89543 51 4 51H16C17.1046 51 18 50.1046 18 49C18 47.8954 17.1046 47 16 47Z" fill="#FDCD56"/>
<path d="M36 51H24C22.8954 51 22 51.8954 22 53C22 54.1046 22.8954 55 24 55H36C37.1046 55 38 54.1046 38 53C38 51.8954 37.1046 51 36 51Z" fill="#FDCD56"/>
<path d="M57 51H45C43.8954 51 43 51.8954 43 53C43 54.1046 43.8954 55 45 55H57C58.1046 55 59 54.1046 59 53C59 51.8954 58.1046 51 57 51Z" fill="#F5B945"/>
<path d="M15 51H3C1.89543 51 1 51.8954 1 53C1 54.1046 1.89543 55 3 55H15C16.1046 55 17 54.1046 17 53C17 51.8954 16.1046 51 15 51Z" fill="#F5B945"/>
<path d="M15 55H3C1.89543 55 1 55.8954 1 57C1 58.1046 1.89543 59 3 59H15C16.1046 59 17 58.1046 17 57C17 55.8954 16.1046 55 15 55Z" fill="#FDCD56"/>
<path d="M35 55H23C21.8954 55 21 55.8954 21 57C21 58.1046 21.8954 59 23 59H35C36.1046 59 37 58.1046 37 57C37 55.8954 36.1046 55 35 55Z" fill="#F5B945"/>
<path d="M56 55H44C42.8954 55 42 55.8954 42 57C42 58.1046 42.8954 59 44 59H56C57.1046 59 58 58.1046 58 57C58 55.8954 57.1046 55 56 55Z" fill="#FDCD56"/>
<path d="M32.26 21.98C31.6846 21.4792 31.0416 21.0618 30.35 20.74C28.1548 19.7231 25.617 19.7556 23.4484 20.8282C21.2799 21.9008 19.714 23.8981 19.19 26.26C19.0654 26.8317 19.0017 27.4149 19 28C19 28.17 19.01 28.34 19.02 28.51C19.246 32.13 21.8792 35.1451 25.4359 35.8562C28.9925 36.5674 32.5826 34.7968 34.1833 31.542C35.784 28.2872 34.9946 24.3628 32.26 21.98ZM27 34C23.6863 34 21 31.3137 21 28C21.0014 27.7459 21.0181 27.4921 21.05 27.24C21.0786 27.1495 21.0922 27.0549 21.09 26.96C21.427 25.0608 22.6551 23.4387 24.3916 22.5992C26.1282 21.7596 28.1622 21.8045 29.86 22.72C29.86 22.73 29.87 22.73 29.88 22.73C32.2918 24.0427 33.5048 26.8251 32.8249 29.4856C32.1451 32.146 29.7459 34.0054 27 34Z" fill="#F5B945"/>
<path d="M28 30V25C27.9999 24.5956 27.7563 24.2311 27.3827 24.0763C27.009 23.9216 26.579 24.0071 26.293 24.293L25.293 25.293C25.0071 25.579 24.9216 26.009 25.0763 26.3827C25.2311 26.7563 25.5956 26.9999 26 27V30C25.4477 30 25 30.4477 25 31C25 31.5523 25.4477 32 26 32H28C28.5523 32 29 31.5523 29 31C29 30.4477 28.5523 30 28 30Z" fill="#F5B945"/>
<path d="M19.0001 28C19.0001 28.17 19.0101 28.34 19.0201 28.51C13.2428 31.0173 7.3186 33.1713 1.28008 34.96C1.18944 34.988 1.09494 35.0015 1.00008 35C0.502432 35 0.0805115 34.6341 0.0101331 34.1414C-0.0602453 33.6488 0.242338 33.1794 0.720083 33.04C7.01586 31.1787 13.1853 28.914 19.1901 26.26C19.0655 26.8317 19.0018 27.4149 19.0001 28Z" fill="#9ED26A"/>
<path d="M59.9996 1V9C59.9996 9.55229 59.5519 10 58.9996 10C58.4473 10 57.9996 9.55229 57.9996 9V3.28L56.9496 4.25C49.4315 11.0931 41.1463 17.0427 32.2596 21.98C31.6842 21.4792 31.0412 21.0618 30.3496 20.74C39.4543 15.7858 47.9288 9.75228 55.5896 2.77L56.4296 2H50.9996C50.4473 2 49.9996 1.55228 49.9996 1C49.9996 0.447715 50.4473 0 50.9996 0H59.0196C59.0907 0.0119201 59.1608 0.0286248 59.2296 0.05C59.2883 0.0526192 59.3459 0.0661857 59.3996 0.09C59.4433 0.110727 59.4837 0.137674 59.5196 0.17C59.5923 0.207366 59.6596 0.254466 59.7196 0.31C59.7196 0.32 59.7296 0.32 59.7396 0.32C59.7696 0.36 59.7796 0.41 59.8096 0.45C59.8554 0.509516 59.8955 0.573118 59.9296 0.64C59.9486 0.712181 59.962 0.785738 59.9696 0.86C59.9844 0.905519 59.9944 0.952431 59.9996 1Z" fill="#9ED26A"/>
</g>
<defs>
<clipPath id="clip0_1642_325">
<rect width="60" height="59" fill="white"/>
</clipPath>
</defs>
</svg>
