<svg width="58" height="58" viewBox="0 0 58 58" fill="none" xmlns="http://www.w3.org/2000/svg">
<g clip-path="url(#clip0_1642_308)">
<path d="M31.83 53H14C12.3431 53 11 51.6569 11 50V39H32L31.83 53Z" fill="#D94452"/>
<path d="M40 10C40.0023 16.224 39.588 22.4413 38.76 28.61L28.14 41H11L3.22 33.22C1.15779 31.156 -0.000419046 28.3576 1.13732e-07 25.44V17.5C1.13732e-07 15.567 1.567 14 3.5 14C4.02069 13.9959 4.53487 14.1159 5 14.35C5.36202 14.5157 5.69075 14.7462 5.97 15.03C6.63073 15.6819 7.00186 16.5718 7 17.5V10C7 4.47715 11.4772 0 17 0H30C32.6522 0 35.1957 1.05357 37.0711 2.92893C38.9464 4.8043 40 7.34784 40 10Z" fill="#EB5463"/>
<path d="M58 43C58 51.2843 51.2843 58 43 58C34.7157 58 28 51.2843 28 43C28.0008 42.3309 28.0476 41.6627 28.14 41C28.7444 36.4425 31.4153 32.4177 35.38 30.09C36.4385 29.4537 37.5745 28.9563 38.76 28.61C40.1364 28.2026 41.5646 27.9972 43 28C51.2831 28.0028 57.9972 34.7169 58 43Z" fill="#E2AC40"/>
<path d="M43 54C49.0751 54 54 49.0751 54 43C54 36.9249 49.0751 32 43 32C36.9249 32 32 36.9249 32 43C32 49.0751 36.9249 54 43 54Z" fill="#FDCD56"/>
<path d="M11 45H21C22.1046 45 23 45.8954 23 47C23 48.1046 22.1046 49 21 49H11V45Z" fill="#EB5463"/>
<path d="M40.0002 10C40.0024 16.224 39.5882 22.4413 38.7602 28.61C37.5746 28.9563 36.4387 29.4537 35.3802 30.09C36.3362 23.4304 36.9304 16.7239 37.1602 10C37.1602 4.47715 32.683 0 27.1602 0H30.0002C32.6523 0 35.1959 1.05357 37.0712 2.92893C38.9466 4.8043 40.0002 7.34784 40.0002 10Z" fill="#D94452"/>
<path d="M58.0005 43C57.9977 51.2831 51.2836 57.9972 43.0005 58C42.6605 58 42.3205 57.99 41.9805 57.96C49.8636 57.4468 55.9958 50.9045 55.9985 43.0047C56.0011 35.1049 49.8732 28.5585 41.9905 28.04C42.3205 28.01 42.6605 28 43.0005 28C51.2836 28.0028 57.9977 34.7169 58.0005 43Z" fill="#D69D38"/>
<path d="M54 43C53.9961 49.0735 49.0735 53.9961 43 54C42.4979 54.0039 41.9962 53.9671 41.5 53.89C46.9424 53.1433 50.998 48.4934 50.998 43C50.998 37.5066 46.9424 32.8566 41.5 32.11C41.9962 32.0329 42.4979 31.9961 43 32C49.0735 32.0038 53.9961 36.9264 54 43Z" fill="#EFBD50"/>
<path d="M45 46H44V39C43.9999 38.5956 43.7563 38.2311 43.3827 38.0763C43.009 37.9216 42.579 38.0071 42.293 38.293L40.293 40.293C39.914 40.6854 39.9194 41.3091 40.3052 41.6948C40.6909 42.0806 41.3146 42.086 41.707 41.707L42 41.414V46H41C40.4477 46 40 46.4477 40 47C40 47.5523 40.4477 48 41 48H45C45.5523 48 46 47.5523 46 47C46 46.4477 45.5523 46 45 46Z" fill="#E2AC40"/>
<path d="M12.95 27.32C12.8124 27.7273 12.4299 28.0011 12 28C11.8916 27.9973 11.784 27.9805 11.68 27.95L8.42 26.86C6.37729 26.1826 4.99884 24.2721 5 22.12L5 14.35C5.36203 14.5157 5.69075 14.7462 5.97 15.03C6.63073 15.6818 7.00186 16.5718 7 17.5V22.12C6.99681 23.4105 7.82412 24.5566 9.05 24.96L12.32 26.05C12.8414 26.2305 13.1217 26.7957 12.95 27.32Z" fill="#D94452"/>
<path d="M11 11C10.4477 11 10 10.5523 10 10C10.0044 6.13583 13.1358 3.00441 17 3H30C30.5523 3 31 3.44772 31 4C31 4.55228 30.5523 5 30 5H17C14.2399 5.00331 12.0033 7.23995 12 10C12 10.5523 11.5523 11 11 11Z" fill="#F76C82"/>
<path d="M28 17C28 17.5523 27.5523 18 27 18H11C9.52131 18.0032 8.09474 17.454 7 16.46V12C7 14.2091 8.79086 16 11 16H27C27.5523 16 28 16.4477 28 17Z" fill="#D94452"/>
</g>
<defs>
<clipPath id="clip0_1642_308">
<rect width="58" height="58" fill="white"/>
</clipPath>
</defs>
</svg>
