<svg width="58" height="58" viewBox="0 0 58 58" fill="none" xmlns="http://www.w3.org/2000/svg">
<g clip-path="url(#clip0_1642_283)">
<path d="M45.57 8.89997V8.88997C40.6371 3.2383 33.5017 -0.00482178 26 -0.00482178C18.4984 -0.00482178 11.363 3.2383 6.43004 8.88997V8.89997C2.27483 13.6261 -0.011683 19.7069 4.48923e-05 26C4.48923e-05 26.36 0.0100449 26.71 0.0200449 27.07C0.509783 38.5981 8.52649 48.4297 19.72 51.23C21.7733 51.7466 23.8829 52.0052 26 52C39.9366 52.0015 51.3958 41.0143 51.98 27.09C51.99 26.73 52 26.37 52 26C52.0118 19.7069 49.7253 13.6261 45.57 8.89997Z" fill="#E4E8EB"/>
<path d="M19.0005 37L15.0005 41L3.79051 39.5C1.49202 35.747 0.194031 31.4675 0.0205078 27.07L8.00051 20L15.0005 23L19.0005 37Z" fill="#CAD0D7"/>
<path d="M45.57 8.88999V8.89999L45.09 12.3L44 20L37 23L26 15V5.99999L33.92 2.39999L35.36 1.73999C39.294 3.25778 42.7986 5.71201 45.57 8.88999Z" fill="#CAD0D7"/>
<path d="M52 26C52 26.37 51.99 26.73 51.98 27.09L48.94 24.39L44 20L45.09 12.3L45.57 8.89996C49.7252 13.6261 52.0117 19.7069 52 26Z" fill="#636C77"/>
<path d="M35.3596 1.73995L25.9996 5.99995L16.6396 1.73995C22.664 -0.580065 29.3353 -0.580065 35.3596 1.73995Z" fill="#636C77"/>
<path d="M19.72 51.2299C13.0694 49.577 7.34265 45.3602 3.79004 39.4999L15 40.9999L19.72 51.2299Z" fill="#636C77"/>
<path d="M8.00004 20L0.0200449 27.07C0.0100449 26.71 4.48923e-05 26.36 4.48923e-05 26C-0.011683 19.7069 2.27483 13.6261 6.43004 8.89996L8.00004 20Z" fill="#636C77"/>
<path d="M37 22.9999L34.89 30.3899L32.88 36.9999H19L15 22.9999L26 14.9999L37 22.9999Z" fill="#636C77"/>
<path d="M58 43C58.0028 49.2181 54.1672 54.7926 48.3587 57.0121C42.5502 59.2316 35.9745 57.6354 31.83 53C31.4199 52.5481 31.0391 52.0705 30.69 51.57C30.55 51.37 30.42 51.17 30.29 50.96C28.7911 48.5758 27.9972 45.8162 28 43C28.0008 42.3309 28.0476 41.6626 28.14 41C28.7444 36.4424 31.4153 32.4176 35.38 30.09C36.4385 29.4536 37.5745 28.9562 38.76 28.61C40.1364 28.2026 41.5646 27.9971 43 28C44.9952 27.9995 46.9705 28.3973 48.81 29.17C49.7837 29.5765 50.7093 30.0896 51.57 30.7C55.6004 33.4977 58.003 38.0937 58 43Z" fill="#E2AC40"/>
<path d="M43 54C49.0751 54 54 49.0751 54 43C54 36.9249 49.0751 32 43 32C36.9249 32 32 36.9249 32 43C32 49.0751 36.9249 54 43 54Z" fill="#FDCD56"/>
<path d="M58.0005 43C57.9977 51.2831 51.2836 57.9972 43.0005 58C42.6605 58 42.3205 57.99 41.9805 57.96C49.8636 57.4468 55.9958 50.9045 55.9985 43.0047C56.0011 35.1049 49.8732 28.5585 41.9905 28.04C42.3205 28.01 42.6605 28 43.0005 28C51.2836 28.0028 57.9977 34.7169 58.0005 43Z" fill="#D69D38"/>
<path d="M54 43C53.9961 49.0735 49.0735 53.9961 43 54C42.4979 54.0039 41.9962 53.9671 41.5 53.89C46.9424 53.1433 50.998 48.4934 50.998 43C50.998 37.5066 46.9424 32.8566 41.5 32.11C41.9962 32.0329 42.4979 31.9961 43 32C49.0735 32.0038 53.9961 36.9264 54 43Z" fill="#EFBD50"/>
<path d="M30.6902 51.57C29.1439 51.8604 27.5736 52.0044 26.0002 52C25.4902 52 24.9902 51.99 24.4902 51.96C26.4555 51.8499 28.4016 51.5144 30.2902 50.96C30.4202 51.17 30.5502 51.37 30.6902 51.57Z" fill="#CAD0D7"/>
<path d="M51.9796 27.09C51.9298 28.3016 51.7928 29.508 51.5696 30.7C50.7089 30.0896 49.7833 29.5765 48.8096 29.17C48.8896 28.49 48.9496 27.79 48.9796 27.09C48.9896 26.73 48.9996 26.37 48.9996 26C48.9996 25.46 48.9796 24.92 48.9396 24.39L51.9796 27.09Z" fill="#CAD0D7"/>
<path d="M35.36 1.73995L33.92 2.39995C33.41 2.15995 32.89 1.93995 32.36 1.73995C29.8451 0.766913 27.1926 0.196573 24.5 0.0499457C25 0.00994574 25.5 -5.42166e-05 26 -5.42166e-05C29.2006 -0.00237461 32.374 0.587556 35.36 1.73995Z" fill="#424852"/>
<path d="M45.5699 8.88999V8.89999L45.0899 12.3C44.3462 11.0984 43.5033 9.96108 42.5699 8.89999V8.88999C40.1754 6.14211 37.2278 3.93058 33.9199 2.39999L35.3599 1.73999C39.294 3.25778 42.7985 5.71201 45.5699 8.88999Z" fill="#A9B0BB"/>
<path d="M51.9998 26C51.9998 26.37 51.9898 26.73 51.9798 27.09L48.9398 24.39C48.6926 20.1005 47.3685 15.9425 45.0898 12.3L45.5698 8.89996C49.7251 13.6261 52.0116 19.7069 51.9998 26Z" fill="#424852"/>
<path d="M20.9507 30.9999C20.4912 30.9996 20.091 30.6861 19.9807 30.2399L18.8047 25.4829C18.6052 24.6923 18.9084 23.86 19.5697 23.3829L25.3377 19.1879C25.7845 18.8632 26.41 18.9622 26.7347 19.4089C27.0595 19.8557 26.9605 20.4812 26.5137 20.8059L20.7457 24.9999L21.9227 29.7569C21.9865 30.0145 21.9452 30.2868 21.8081 30.5139C21.671 30.741 21.4493 30.9043 21.1917 30.9679C21.1129 30.9879 21.032 30.9986 20.9507 30.9999Z" fill="#A9B0BB"/>
<path d="M45 45.9999H44V38.9999C43.9999 38.5955 43.7563 38.231 43.3827 38.0763C43.009 37.9215 42.579 38.007 42.293 38.2929L40.293 40.2929C39.914 40.6853 39.9194 41.309 40.3052 41.6948C40.6909 42.0805 41.3146 42.0859 41.707 41.7069L42 41.4139V45.9999H41C40.4477 45.9999 40 46.4477 40 46.9999C40 47.5522 40.4477 47.9999 41 47.9999H45C45.5523 47.9999 46 47.5522 46 46.9999C46 46.4477 45.5523 45.9999 45 45.9999Z" fill="#E2AC40"/>
</g>
<defs>
<clipPath id="clip0_1642_283">
<rect width="58" height="58" fill="white"/>
</clipPath>
</defs>
</svg>
