<svg width="59" height="58" viewBox="0 0 59 58" fill="none" xmlns="http://www.w3.org/2000/svg">
<g clip-path="url(#clip0_1642_354)">
<path d="M36.5 43H22.5L20.5 55H38.5L36.5 43Z" fill="#A9B0BB"/>
<path d="M58.5 40V43C58.5 44.6569 57.1569 46 55.5 46H3.5C1.84315 46 0.5 44.6569 0.5 43V40L1.5 39H57.5L58.5 40Z" fill="#CAD0D7"/>
<path d="M44.5 54H14.5C13.3954 54 12.5 54.8954 12.5 56C12.5 57.1046 13.3954 58 14.5 58H44.5C45.6046 58 46.5 57.1046 46.5 56C46.5 54.8954 45.6046 54 44.5 54Z" fill="#CAD0D7"/>
<path d="M58.5 10V40H0.5V10C0.5 8.34315 1.84315 7 3.5 7H55.5C57.1569 7 58.5 8.34315 58.5 10Z" fill="#66D4F1"/>
<path d="M27.5 30V32C27.4967 33.1032 26.6032 33.9967 25.5 34H7.5C6.3968 33.9967 5.50329 33.1032 5.5 32V6C5.50329 4.8968 6.3968 4.00329 7.5 4H18.5L19.5 6.89L27.5 30Z" fill="#F4F6F8"/>
<path d="M53.5 6V32C53.4967 33.1032 52.6032 33.9967 51.5 34H33.5C32.3968 33.9967 31.5033 33.1032 31.5 32V30L40.5 4H51.5C52.6032 4.00329 53.4967 4.8968 53.5 6Z" fill="#F4F6F8"/>
<path d="M18.4996 21.84L17.0596 23.72C16.9274 23.8963 16.7199 24 16.4996 24C16.2793 24 16.0718 23.8963 15.9396 23.72L12.6396 19.41C12.4496 19.1697 12.4496 18.8303 12.6396 18.59L15.9396 14.28C16.0718 14.1037 16.2793 14 16.4996 14C16.7199 14 16.9274 14.1037 17.0596 14.28L18.4996 16.16V21.84Z" fill="#EB5463"/>
<path d="M40.5 2V28C40.4967 29.1032 39.6032 29.9967 38.5 30H20.5C20.2166 30.0022 19.9364 29.9407 19.68 29.82C18.9633 29.4978 18.5016 28.7858 18.5 28V2C18.5033 0.896798 19.3968 0.0032948 20.5 0H38.5C39.6032 0.0032948 40.4967 0.896798 40.5 2Z" fill="#E4E8EB"/>
<path d="M24.5225 14.7C24.5234 14.0825 24.7797 13.493 25.2305 13.071L29.5115 9L33.7925 13.069C34.2441 13.4904 34.5005 14.0803 34.5005 14.698C34.5005 15.3157 34.2441 15.9056 33.7925 16.327C32.8263 17.2243 31.3316 17.2243 30.3655 16.327L29.5115 15.509L28.6575 16.327C27.6917 17.2252 26.1962 17.2252 25.2305 16.327C24.7802 15.9055 24.524 15.3168 24.5225 14.7Z" fill="#424852"/>
<path d="M46.77 19.42L42.49 24L41.5 22.94V15.64C41.5534 15.6715 41.6008 15.7121 41.64 15.76L42.49 16.68L43.34 15.76C43.7788 15.276 44.4017 15 45.055 15C45.7083 15 46.3312 15.276 46.77 15.76C47.7098 16.799 47.7098 18.381 46.77 19.42Z" fill="#EB5463"/>
<path d="M38.33 54H35.33L34 46H37L38.33 54Z" fill="#99A0AA"/>
<path d="M58.5 40V43C58.5 44.6569 57.1569 46 55.5 46H52.5C54.1569 46 55.5 44.6569 55.5 43V40H58.5Z" fill="#A9B0BB"/>
<path d="M46.5 56C46.4918 57.1012 45.6012 57.9918 44.5 58H41.5C42.6012 57.9918 43.4918 57.1012 43.5 56C43.4967 54.8968 42.6032 54.0033 41.5 54H44.5C45.6032 54.0033 46.4967 54.8968 46.5 56Z" fill="#A9B0BB"/>
<path d="M58.5 10V40H55.5V10C55.5061 8.72867 54.7018 7.59463 53.5 7.18V7H55.5C57.1569 7 58.5 8.34315 58.5 10Z" fill="#4FC0E8"/>
<path d="M27.4997 30V31H21.4997C20.7139 30.9984 20.0019 30.5367 19.6797 29.82C19.9361 29.9407 20.2163 30.0022 20.4997 30H27.4997Z" fill="#CAD0D7"/>
<path d="M41.5 4V15.64C41.2172 15.3748 40.8739 15.1825 40.5 15.08V4H41.5Z" fill="#CAD0D7"/>
<path d="M40.5 21.87L41.5 22.94V29C41.4967 30.1032 40.6032 30.9967 39.5 31H31.5V30H38.5C39.6032 29.9967 40.4967 29.1032 40.5 28V21.87Z" fill="#CAD0D7"/>
<path d="M41.5 15.64V22.94L40.5 21.87V15.08C40.8739 15.1826 41.2172 15.3748 41.5 15.64Z" fill="#D94452"/>
<path d="M31.5 19H30.5V15C30.5 14.4477 30.0523 14 29.5 14C28.9477 14 28.5 14.4477 28.5 15V19H27.5C26.9477 19 26.5 19.4477 26.5 20C26.5 20.5523 26.9477 21 27.5 21H31.5C32.0523 21 32.5 20.5523 32.5 20C32.5 19.4477 32.0523 19 31.5 19Z" fill="#424852"/>
</g>
<defs>
<clipPath id="clip0_1642_354">
<rect width="58" height="58" fill="white" transform="translate(0.5)"/>
</clipPath>
</defs>
</svg>
